# xmcd
#
# Track frame offsets: 
#        150
#        17487
#        43930
#        60880
#        82352
#        96267
#        113317
#        134247
#        147327
#        168705
#        187877
#
# Disc length: 2690 seconds
#
# Revision: 5
# Processed by: cddbd v1.5.2PL0 Copyright (c) Steve Scherf et al.
# Submitted via: ExactAudioCopy v0.99pb5
#
DISCID=970a800b
DTITLE=Tony Joe White - Tony Joe White
DYEAR=1971
DGENRE=Southern Rock
TTITLE0=They Caught The Devil And Put Him In Jail In Eudora, Arkansas
TTITLE1=The Change
TTITLE2=My Kind Of Woman
TTITLE3=The Daddy
TTITLE4=Black Panther Swamps
TTITLE5=Five Summers For Jimmy
TTITLE6=A Night In The Life Of A Swamp Fox
TTITLE7=Traveling Bone
TTITLE8=I Just Walked Away
TTITLE9=Copper Kettle (The Pale Moonlight)
TTITLE10=Voodoo Village
EXTD=(c) 1971 Warner Bros - WEA\nupc 075992692922\nProduced by Peter A
EXTD=sher\nAll selections writetn by Tony Joe White\nAll published by 
EXTD=Moccasin Music execpt\n(10)Albert Beddoe, Melody Trains Inc.\n(11
EXTD=) Lee Ann White, Swamp Fox Music
EXTT0=
EXTT1=
EXTT2=
EXTT3=
EXTT4=
EXTT5=
EXTT6=
EXTT7=
EXTT8=
EXTT9=
EXTT10=
PLAYORDER=
